<svg width="16" height="16" viewBox="0 0 16 16" fill="none" xmlns="http://www.w3.org/2000/svg">
<path d="M8.00001 9.33333C9.47068 9.33333 10.6667 8.13733 10.6667 6.66667C10.6667 5.196 9.47068 4 8.00001 4C6.52934 4 5.33334 5.196 5.33334 6.66667C5.33334 8.13733 6.52934 9.33333 8.00001 9.33333ZM8.00001 5.33333C8.73534 5.33333 9.33334 5.93133 9.33334 6.66667C9.33334 7.402 8.73534 8 8.00001 8C7.26468 8 6.66668 7.402 6.66668 6.66667C6.66668 5.93133 7.26468 5.33333 8.00001 5.33333Z" fill="#3D3D3D"/>
<path d="M7.61332 14.5426C7.72615 14.6232 7.86134 14.6665 7.99999 14.6665C8.13864 14.6665 8.27382 14.6232 8.38665 14.5426C8.58932 14.3993 13.3527 10.9599 13.3333 6.66659C13.3333 3.72592 10.9407 1.33325 7.99999 1.33325C5.05932 1.33325 2.66665 3.72592 2.66665 6.66325C2.64732 10.9599 7.41065 14.3993 7.61332 14.5426ZM7.99999 2.66659C10.206 2.66659 12 4.46059 12 6.66992C12.014 9.62859 9.07465 12.2853 7.99999 13.1566C6.92599 12.2846 3.98599 9.62725 3.99999 6.66659C3.99999 4.46059 5.79399 2.66659 7.99999 2.66659Z" fill="#3D3D3D"/>
</svg>
